<svg xmlns="http://www.w3.org/2000/svg" width="650" height="650" fill="none" viewBox="0 0 650 650"><g clip-path="url(#a)"><path fill="url(#b)" d="M650 0H0v650h650V0Z"/><path fill="#fff" fill-rule="evenodd" d="M330.607 300.862c.947-.946 2.482-.946 3.429 0l4.345 4.347 4.347-4.347c.947-.946 2.481-.946 3.428 0 .947.948.947 2.482 0 3.429l-4.346 4.347 4.346 4.345c.947.947.947 2.482 0 3.429-.947.946-2.481.946-3.428 0l-4.347-4.346-4.345 4.346c-.947.946-2.482.946-3.429 0-.946-.947-.946-2.482 0-3.429l4.346-4.345-4.346-4.347c-.946-.947-.946-2.481 0-3.429Zm-19.475.503h11.493c1.339 0 2.424 1.085 2.424 2.424s-1.085 2.425-2.424 2.425h-11.394c-2.076 0-3.487.001-4.578.09-1.063.086-1.607.244-1.985.437-.913.465-1.655 1.207-2.119 2.119-.194.379-.351.923-.438 1.986-.089 1.09-.091 2.503-.091 4.579v20.362c0 2.077.002 3.488.091 4.579.087 1.063.244 1.606.438 1.985.434.853 1.11 1.557 1.942 2.025.21-.328.433-.577.58-.737.368-.397.869-.853 1.386-1.323l20.625-18.749c.389-.355.776-.706 1.129-.98.392-.306.879-.629 1.502-.831.873-.284 1.81-.314 2.701-.086.633.162 1.139.454 1.55.735.37.252.778.578 1.189.907l6.835 5.469c.053.041.105.083.157.125.762.608 1.432 1.144 1.957 1.812.654.833 1.117 1.798 1.36 2.828.194.828.194 1.686.193 2.661 0 .066-.001.133-.001.201v.085c0 .404 0 .789-.001 1.16.001.024.001.049.001.074 0 .112.001.223.001.333.001 1.928.001 3.36-.331 4.6-.393 1.464-1.114 2.788-2.081 3.888-.346.395-.724.761-1.13 1.095-1.05.863-2.288 1.509-3.646 1.873-1.24.333-2.672.332-4.6.331h-24.498c-.62 0-1.223 0-1.728-.033-.494-.016-.955-.04-1.383-.074-1.363-.112-2.615-.35-3.792-.95-1.824-.93-3.307-2.413-4.238-4.237-.599-1.177-.837-2.429-.949-3.792-.107-1.312-.107-2.922-.107-4.874v-20.563c0-1.951 0-3.562.107-4.874.112-1.362.35-2.614.949-3.791.931-1.824 2.414-3.308 4.238-4.237 1.177-.599 2.429-.839 3.792-.95 1.312-.108 2.922-.108 4.874-.107Zm28.68 41.727c.241-.316.444-.663.603-1.035.142-.332.259-.807.324-1.723.065-.939.066-2.148.066-3.926 0-1.289-.015-1.545-.063-1.753-.081-.344-.236-.666-.453-.944-.133-.169-.323-.34-1.329-1.145l-6.782-5.424c-.487-.39-.748-.598-.947-.733-.007-.005-.014-.01-.021-.014l-.018.015c-.19.148-.439.371-.9.791l-19.577 17.798H332.214c1.779 0 2.988-.002 3.927-.068.916-.064 1.391-.181 1.723-.323.378-.162.73-.368 1.05-.615.338-.26.64-.563.898-.901Zm-26.883-28.395c-1.339 0-2.424 1.086-2.424 2.424 0 1.339 1.085 2.424 2.424 2.424s2.424-1.085 2.424-2.424c0-1.338-1.085-2.424-2.424-2.424Zm-7.272 2.424c0-4.016 3.256-7.272 7.272-7.272s7.272 3.256 7.272 7.272c0 4.017-3.256 7.273-7.272 7.273s-7.272-3.256-7.272-7.273Z" clip-rule="evenodd"/></g><defs><radialGradient id="b" cx="0" cy="0" r="1" gradientTransform="rotate(90 0 325) scale(325)" gradientUnits="userSpaceOnUse"><stop stop-color="#CECECE"/><stop offset="1" stop-color="#EAEAEA"/></radialGradient><clipPath id="a"><path fill="#fff" d="M0 0h650v650H0z"/></clipPath></defs></svg>